<?xml version="1.0" standalone="no"?>
<!DOCTYPE svg PUBLIC "-//W3C//DTD SVG 20010904//EN"
 "http://www.w3.org/TR/2001/REC-SVG-20010904/DTD/svg10.dtd">
<svg version="1.0" xmlns="http://www.w3.org/2000/svg"
 width="128.000000pt" height="128.000000pt" viewBox="0 0 128.000000 128.000000"
 preserveAspectRatio="xMidYMid meet">

<g transform="translate(0.000000,128.000000) scale(0.100000,-0.100000)"
fill="#000000" stroke="none">
<path d="M0 640 l0 -640 640 0 640 0 0 640 0 640 -640 0 -640 0 0 -640z m1098
408 l3 -47 52 -3 52 -3 0 -200 0 -200 -50 -5 -50 -5 -5 -44 -5 -44 -225 -2
-225 -2 -3 -187 -2 -186 -203 2 -202 3 -3 475 c-1 261 0 480 2 485 2 6 156 10
432 10 l429 0 3 -47z"/>
<path d="M647 884 c-4 -4 -7 -45 -7 -90 l0 -83 33 -6 c18 -4 53 -5 77 -3 l45
3 0 90 0 90 -70 3 c-39 1 -74 0 -78 -4z"/>
</g>
</svg>
